# xmcd CD database file
#
# Track frame offsets:
#	150
#	32488
#	46764
#	74217
#	111251
#	159193
#	210558
#
# Disc length: 4133 seconds
#
# Revision: 0
# Processed by: cddbd v1.5.2PL0 Copyright (c) Steve Scherf et al.
# Submitted via: CDex 1.50beta8
#
DISCID=59102307
DTITLE=Andrey Klimkovsky - Evolution - CD2
DYEAR=2004
DGENRE=New Age
TTITLE0=Star Voyage
TTITLE1=The abyss full of stars opening
TTITLE2=Ocean of Freedom
TTITLE3=Concerto de Aranjuez
TTITLE4=All Oscillators ON
TTITLE5=Elleterry
TTITLE6=DATA
EXTD=YEAR: 2004
EXTT0=
EXTT1=
EXTT2=
EXTT3=
EXTT4=
EXTT5=
EXTT6=
PLAYORDER=
